<?xml version="1.0" encoding="UTF-8"?>
<svg width="143px" height="124px" viewBox="0 0 143 124" version="1.1" xmlns="http://www.w3.org/2000/svg" xmlns:xlink="http://www.w3.org/1999/xlink">
    <!-- Generator: Sketch 55.1 (78136) - https://sketchapp.com -->
    <title>black_liquidity-22</title>
    <desc>Created with Sketch.</desc>
    <g id="页面1" stroke="none" stroke-width="1" fill="none" fill-rule="evenodd" opacity="0.06" stroke-linecap="round" stroke-linejoin="round">
        <g id="未登录" transform="translate(-787.000000, -2752.000000)" stroke="#4A53C6" stroke-width="10">
            <g id="FAq" transform="translate(360.000000, 2197.000000)">
                <g id="FAq备份" transform="translate(0.000000, 120.000000)">
                    <g id="编组-27" transform="translate(0.000000, 435.000000)">
                        <g id="responsive">
                            <g id="black_liquidity-22" transform="translate(428.000000, -38.000000)">
                                <path d="M71.1111111,125.822222 C49.1501173,121.586708 33.2819627,102.365707 33.2819627,80 C33.2819627,57.6342934 49.1501173,38.4132922 71.1111111,34.1777778" id="Shape"></path>
                                <path d="M88.8888889,34.1777778 C110.849883,38.4132922 126.718037,57.6342934 126.718037,80 C126.718037,102.365707 110.849883,121.586708 88.8888889,125.822222" id="Shape"></path>
                                <path d="M90.4,68.0444444 C76.4888889,58.0888889 70.5333333,67.7333333 71.5111111,73.0666667 C72.4888889,78.4 78.8888889,79.3777778 81.6,79.7777778 C100.755556,82.5333333 88,105.111111 68.9777778,91.0222222" id="Shape"></path>
                                <path d="M80,58 L80,63.2444444" id="Shape"></path>
                                <path d="M80,95.4666667 L80,102.444444" id="Shape"></path>
                                <path d="M124.444444,124.444444 L142.222222,124.444444" id="Shape"></path>
                                <path d="M138.133333,128.488889 C136.711111,130.177778 135.22963,131.822222 133.688889,133.422222 C110.995951,156.528166 76.1010226,162.601784 46.9357426,148.521994 C17.7704625,134.442203 0.822100423,103.34079 4.8,71.2" id="Shape"></path>
                                <path d="M35.5555556,35.5555556 L17.7777778,35.5555556" id="Shape"></path>
                                <path d="M21.8666667,31.5111111 C23.2888889,29.8222222 24.7703704,28.1777778 26.3111111,26.5777778 C49.0040486,3.47183379 83.8989774,-2.60178391 113.064257,11.4780065 C142.229537,25.5577968 159.1779,56.6592101 155.2,88.8" id="Shape"></path>
                            </g>
                        </g>
                    </g>
                </g>
            </g>
        </g>
    </g>
</svg>