<?xml version="1.0" encoding="UTF-8"?><svg width="40px" height="40px" viewBox="0 0 40 40" version="1.1" xmlns="http://www.w3.org/2000/svg" xmlns:xlink="http://www.w3.org/1999/xlink"><title>icon_vul</title><defs><linearGradient x1="14.9114078%" y1="0%" x2="100%" y2="126.764337%" id="linearGradient-1"><stop stop-color="#F76B1C" offset="0%"/><stop stop-color="#FBDA61" offset="100%"/></linearGradient><path d="M19.75,10 C19.12,10 18.535,10.225 18.13,10.63 C17.725,11.035 17.5,11.62 17.5,12.25 C17.5,12.88 17.905,13.33 18.13,13.87 C18.1975,14.005 18.1975,14.23 18.1975,14.5 L13,14.5 L13,28 L18.1975,28 C18.1975,27.73 18.175,27.505 18.13,27.37 C17.905,26.83 17.5,26.38 17.5,25.75 C17.5,25.12 17.725,24.535 18.13,24.13 C18.535,23.725 19.12,23.5 19.75,23.5 C20.38,23.5 20.965,23.725 21.37,24.13 C21.775,24.535 22,25.12 22,25.75 C22,26.38 21.595,26.83 21.37,27.37 C21.3025,27.505 21.3025,27.73 21.3025,28 L26.5,28 L26.5,22.8025 C26.77,22.8025 26.995,22.825 27.13,22.87 C27.67,23.095 28.12,23.5 28.75,23.5 C29.38,23.5 29.965,23.275 30.37,22.87 C30.775,22.465 31,21.88 31,21.25 C31,20.62 30.775,20.035 30.37,19.63 C29.965,19.225 29.38,19 28.75,19 C28.12,19 27.67,19.405 27.13,19.63 C26.995,19.6975 26.77,19.6975 26.5,19.6975 L26.5,14.5 L21.3025,14.5 C21.3025,14.23 21.325,14.005 21.37,13.87 C21.595,13.33 22,12.88 22,12.25 C22,11.62 21.775,11.035 21.37,10.63 C20.965,10.225 20.38,10 19.75,10 L19.75,10 Z" id="path-2"/><filter x="-44.4%" y="-22.2%" width="188.9%" height="188.9%" filterUnits="objectBoundingBox" id="filter-3"><feOffset dx="0" dy="4" in="SourceAlpha" result="shadowOffsetOuter1"/><feGaussianBlur stdDeviation="2" in="shadowOffsetOuter1" result="shadowBlurOuter1"/><feColorMatrix values="0 0 0 0 0.968627451   0 0 0 0 0.419607843   0 0 0 0 0.109803922  0 0 0 0.5 0" type="matrix" in="shadowBlurOuter1"/></filter></defs><g id="设计调整" stroke="none" stroke-width="1" fill="none" fill-rule="evenodd"><g id="按钮效果" transform="translate(-670.000000, -1243.000000)" fill-rule="nonzero"><g id="Group-2333备份" transform="translate(100.000000, 1063.000000)"><g id="icon_vul" transform="translate(570.000000, 179.999992)"><path d="M40,20 C40,31.0457 31.0457,40 20,40 C8.9543,40 0,31.0457 0,20 C0,8.9543 8.9543,0 20,0 C31.0457,0 40,8.9543 40,20 Z" id="Ellipse-47" fill="url(#linearGradient-1)"/><g id="Vector"><use fill="black" fill-opacity="1" filter="url(#filter-3)" xlink:href="#path-2"/><use fill="#FFFFFF" xlink:href="#path-2"/></g></g></g></g></g></svg>