<?xml version="1.0" encoding="UTF-8"?><svg width="40px" height="40px" viewBox="0 0 40 40" version="1.1" xmlns="http://www.w3.org/2000/svg" xmlns:xlink="http://www.w3.org/1999/xlink"><title>icon_calcuator</title><defs><linearGradient x1="14.9114078%" y1="0%" x2="100%" y2="126.764337%" id="linearGradient-1"><stop stop-color="#F76B1C" offset="0%"/><stop stop-color="#FBDA61" offset="100%"/></linearGradient><path d="M24.7474858,14.8798792 L26.2189134,16.3704982 L21.2324086,21.4220401 L17.8706052,18.0163899 C17.4720935,17.6126806 16.8283439,17.6126806 16.4298323,18.0163899 L10.2988837,24.2376537 C9.90037209,24.641363 9.90037209,25.2935087 10.2988837,25.697218 C10.6973954,26.1009273 11.341145,26.1009273 11.7396566,25.697218 L17.1451096,20.2109122 L20.506913,23.6165624 C20.9054247,24.0202717 21.5491743,24.0202717 21.9476859,23.6165624 L27.6596863,17.8404141 L29.1311139,19.331033 C29.4478796,19.6519301 29.999665,19.4241967 29.999665,18.9687298 L29.999665,14.517576 C30.0098832,14.2277334 29.7850818,14 29.4989709,14 L25.1153427,14 C24.6555215,14 24.4307201,14.5589821 24.7474858,14.8798792 L24.7474858,14.8798792 Z" id="path-2"/><filter x="-40.0%" y="-33.3%" width="180.0%" height="233.3%" filterUnits="objectBoundingBox" id="filter-3"><feOffset dx="0" dy="4" in="SourceAlpha" result="shadowOffsetOuter1"/><feGaussianBlur stdDeviation="2" in="shadowOffsetOuter1" result="shadowBlurOuter1"/><feColorMatrix values="0 0 0 0 0.968627451   0 0 0 0 0.419607843   0 0 0 0 0.109803922  0 0 0 0.5 0" type="matrix" in="shadowBlurOuter1"/></filter></defs><g id="设计调整" stroke="none" stroke-width="1" fill="none" fill-rule="evenodd"><g id="按钮效果" transform="translate(-670.000000, -1113.000000)" fill-rule="nonzero"><g id="Group-2333备份" transform="translate(100.000000, 1063.000000)"><g id="icon_calcuator" transform="translate(570.000000, 49.999992)"><path d="M40,20 C40,31.0457 31.0457,40 20,40 C8.9543,40 0,31.0457 0,20 C0,8.9543 8.9543,0 20,0 C31.0457,0 40,8.9543 40,20 Z" id="Ellipse-47" fill="url(#linearGradient-1)"/><g id="Vector"><use fill="black" fill-opacity="1" filter="url(#filter-3)" xlink:href="#path-2"/><use fill="#FFFFFF" xlink:href="#path-2"/></g></g></g></g></g></svg>